<svg width="16" height="19" viewBox="0 0 16 19" fill="none" xmlns="http://www.w3.org/2000/svg">
    <path d="M8.48888 18.2869C6.10595 18.2869 4.21316 17.486 2.8105 15.8841C1.41581 14.2742 0.71847 12.1025 0.71847 9.36887C0.71847 6.65919 1.42378 4.49942 2.83441 2.88955C4.24504 1.27171 6.12986 0.46279 8.48888 0.46279C10.3697 0.46279 11.9636 0.988787 13.2707 2.04078C14.5857 3.0848 15.3786 4.46754 15.6496 6.18898H13.4739C13.195 5.05729 12.6012 4.15274 11.6927 3.47532C10.7841 2.78993 9.7162 2.44723 8.48888 2.44723C6.80728 2.44723 5.46041 3.07683 4.44827 4.33604C3.43612 5.59524 2.93005 7.27285 2.93005 9.36887C2.93005 11.4888 3.43214 13.1744 4.43631 14.4256C5.44049 15.6768 6.79533 16.3025 8.50083 16.3025C9.768 16.3025 10.8359 16.0116 11.7046 15.4298C12.5733 14.848 13.1631 14.0311 13.4739 12.9791H15.6496C15.2511 14.6846 14.4342 15.9956 13.1989 16.9121C11.9636 17.8287 10.3936 18.2869 8.48888 18.2869Z" fill="#FF6060"/>
</svg>
