<svg width="13" height="12" viewBox="0 0 13 12" fill="none" xmlns="http://www.w3.org/2000/svg">
    <path d="M7.47572 2.99411C7.19678 3.27305 6.84213 3.41251 6.41177 3.41251C5.98141 3.41251 5.62278 3.27305 5.33587 2.99411C5.05693 2.71517 4.91746 2.35654 4.91746 1.9182C4.91746 1.48784 5.05693 1.13319 5.33587 0.854257C5.62278 0.56735 5.98141 0.423896 6.41177 0.423896C6.83416 0.423896 7.18881 0.56735 7.47572 0.854257C7.76263 1.13319 7.90608 1.48784 7.90608 1.9182C7.90608 2.34857 7.76263 2.7072 7.47572 2.99411ZM7.47572 11.5296C7.19678 11.8085 6.84213 11.948 6.41177 11.948C5.98141 11.948 5.62278 11.8085 5.33587 11.5296C5.05693 11.2507 4.91746 10.892 4.91746 10.4537C4.91746 10.0233 5.05693 9.66869 5.33587 9.38975C5.62278 9.10284 5.98141 8.95939 6.41177 8.95939C6.83416 8.95939 7.18881 9.10284 7.47572 9.38975C7.76263 9.66869 7.90608 10.0233 7.90608 10.4537C7.90608 10.8841 7.76263 11.2427 7.47572 11.5296ZM12.4846 7.07058H0.326946V5.30132H12.4846V7.07058Z" fill="#00B0D7"/>
</svg>
