<svg width="18" height="19" viewBox="0 0 18 19" fill="none" xmlns="http://www.w3.org/2000/svg">
    <path d="M6.56419 1.70606C7.22567 2.48708 7.55641 3.52712 7.55641 4.82617C7.55641 6.12523 7.22567 7.16526 6.56419 7.94629C5.90271 8.72731 5.02605 9.11783 3.93421 9.11783C2.84237 9.11783 1.9657 8.72731 1.30422 7.94629C0.642743 7.16526 0.312003 6.12523 0.312003 4.82617C0.312003 3.52712 0.642743 2.48708 1.30422 1.70606C1.9657 0.92503 2.84237 0.534517 3.93421 0.534517C5.02605 0.534517 5.90271 0.92503 6.56419 1.70606ZM2.67899 6.90625C2.9898 7.40834 3.40821 7.65938 3.93421 7.65938C4.4602 7.65938 4.87463 7.40834 5.17747 6.90625C5.48829 6.39619 5.6437 5.70283 5.6437 4.82617C5.6437 3.94951 5.48829 3.26014 5.17747 2.75805C4.87463 2.24799 4.4602 1.99296 3.93421 1.99296C3.40821 1.99296 2.9898 2.24799 2.67899 2.75805C2.37614 3.26014 2.22472 3.94951 2.22472 4.82617C2.22472 5.70283 2.37614 6.39619 2.67899 6.90625ZM3.40821 18H1.32813L7.98677 8.90265L13.9521 0.749698H16.0082L9.5289 9.61992L3.40821 18ZM16.0441 10.7675C16.7056 11.5486 17.0363 12.5886 17.0363 13.8877C17.0363 15.1867 16.7056 16.2268 16.0441 17.0078C15.3826 17.7888 14.5059 18.1793 13.4141 18.1793C12.3223 18.1793 11.4456 17.7888 10.7841 17.0078C10.1226 16.2268 9.7919 15.1867 9.7919 13.8877C9.7919 12.5886 10.1226 11.5486 10.7841 10.7675C11.4456 9.98652 12.3223 9.59601 13.4141 9.59601C14.5059 9.59601 15.3826 9.98652 16.0441 10.7675ZM12.1589 15.9677C12.4697 16.4698 12.8881 16.7209 13.4141 16.7209C13.9401 16.7209 14.3545 16.4698 14.6574 15.9677C14.9682 15.4577 15.1236 14.7643 15.1236 13.8877C15.1236 13.011 14.9682 12.3216 14.6574 11.8195C14.3545 11.3095 13.9401 11.0545 13.4141 11.0545C12.8881 11.0545 12.4697 11.3095 12.1589 11.8195C11.856 12.3216 11.7046 13.011 11.7046 13.8877C11.7046 14.7643 11.856 15.4577 12.1589 15.9677Z" fill="#00B0D7"/>
</svg>
